HIERARCHY
ROOT Hips
{
	OFFSET 0.000000 0.000000 0.000000
	CHANNELS 6 Xposition Yposition Zposition Zrotation Yrotation Xrotation 
	JOINT Spine1
	{
		OFFSET -0.013727 5.003763 -0.053727
		CHANNELS 3 Zrotation Yrotation Xrotation
		JOINT Spine2
		{
			OFFSET -0.000000 7.125302 -0.029825
			CHANNELS 3 Zrotation Yrotation Xrotation
			JOINT Chest
			{
				OFFSET -0.000001 7.550064 -0.815971
				CHANNELS 3 Zrotation Yrotation Xrotation
				JOINT Neck1
				{
					OFFSET -0.181676 26.311296 -0.553348
					CHANNELS 3 Zrotation Yrotation Xrotation
					JOINT Neck2
					{
						OFFSET -0.000003 7.709399 2.302586
						CHANNELS 3 Zrotation Yrotation Xrotation
						JOINT Head
						{
							OFFSET -0.000005 6.128912 1.953709
							CHANNELS 3 Zrotation Yrotation Xrotation
							JOINT HeadEnd
							{
								OFFSET 0.003598 16.065403 -1.835379
								CHANNELS 3 Zrotation Yrotation Xrotation
								End Site
								{
									OFFSET 0.000000 0.000000 0.000000
								}
							}
							JOINT Jaw
							{
								OFFSET 0.002637 0.475591 3.094941
								CHANNELS 3 Zrotation Yrotation Xrotation
								End Site
								{
									OFFSET 0.000000 0.000000 0.000000
								}
							}
							JOINT LeftEye
							{
								OFFSET 3.206381 5.380208 7.586883
								CHANNELS 3 Zrotation Yrotation Xrotation
								End Site
								{
									OFFSET 0.000000 0.000000 0.000000
								}
							}
							JOINT RightEye
							{
								OFFSET -3.222440 5.361867 7.558234
								CHANNELS 3 Zrotation Yrotation Xrotation
								End Site
								{
									OFFSET 0.000000 0.000000 0.000000
								}
							}
						}
					}
				}
				JOINT LeftShoulder
				{
					OFFSET 1.621652 23.237164 5.113413
					CHANNELS 3 Zrotation Yrotation Xrotation
					JOINT LeftArm
					{
						OFFSET 14.919845 0.000000 -5.502326
						CHANNELS 3 Zrotation Yrotation Xrotation
						JOINT LeftForeArm
						{
							OFFSET 28.739309 0.000003 -0.002588
							CHANNELS 3 Zrotation Yrotation Xrotation
							JOINT LeftHand
							{
								OFFSET 27.093979 -0.000003 0.002610
								CHANNELS 3 Zrotation Yrotation Xrotation
								JOINT LeftHandThumb1
								{
									OFFSET 2.276481 -1.392045 3.191413
									CHANNELS 3 Zrotation Yrotation Xrotation
									JOINT LeftHandThumb2
									{
										OFFSET 4.012841 -1.828126 1.641655
										CHANNELS 3 Zrotation Yrotation Xrotation
										JOINT LeftHandThumb3
										{
											OFFSET 2.798517 0.000001 -0.000003
											CHANNELS 3 Zrotation Yrotation Xrotation
											JOINT LeftHandThumbEnd
											{
												OFFSET 3.180790 -0.000002 0.000002
												CHANNELS 3 Zrotation Yrotation Xrotation
												End Site
												{
													OFFSET 0.000000 0.000000 0.000000
												}
											}
										}
									}
								}
								JOINT LeftHandIndex1
								{
									OFFSET 3.247554 -0.531998 2.296169
									CHANNELS 3 Zrotation Yrotation Xrotation
									JOINT LeftHandIndex2
									{
										OFFSET 6.364578 0.012062 0.178599
										CHANNELS 3 Zrotation Yrotation Xrotation
										JOINT LeftHandIndex3
										{
											OFFSET 3.662366 0.000000 0.000000
											CHANNELS 3 Zrotation Yrotation Xrotation
											JOINT LeftHandIndex4
											{
												OFFSET 2.329242 0.000002 0.000004
												CHANNELS 3 Zrotation Yrotation Xrotation
												JOINT LeftHandIndexEnd
												{
													OFFSET 2.759619 -0.180539 -0.113024
													CHANNELS 3 Zrotation Yrotation Xrotation
													End Site
													{
														OFFSET 0.000000 0.000000 0.000000
													}
												}
											}
										}
									}
								}
								JOINT LeftHandMiddle1
								{
									OFFSET 3.163499 0.240981 1.000332
									CHANNELS 3 Zrotation Yrotation Xrotation
									JOINT LeftHandMiddle2
									{
										OFFSET 6.190778 -0.259276 -1.002548
										CHANNELS 3 Zrotation Yrotation Xrotation
										JOINT LeftHandMiddle3
										{
											OFFSET 4.356523 -0.000006 0.000000
											CHANNELS 3 Zrotation Yrotation Xrotation
											JOINT LeftHandMiddle4
											{
												OFFSET 2.996875 -0.000006 0.000001
												CHANNELS 3 Zrotation Yrotation Xrotation
												JOINT LeftHandMiddleEnd
												{
													OFFSET 2.304294 -0.294571 -0.031740
													CHANNELS 3 Zrotation Yrotation Xrotation
													End Site
													{
														OFFSET 0.000000 0.000000 0.000000
													}
												}
											}
										}
									}
								}
								JOINT LeftHandRing1
								{
									OFFSET 2.882642 -0.053650 -0.322543
									CHANNELS 3 Zrotation Yrotation Xrotation
									JOINT LeftHandRing2
									{
										OFFSET 5.854542 -0.486203 -1.373841
										CHANNELS 3 Zrotation Yrotation Xrotation
										JOINT LeftHandRing3
										{
											OFFSET 4.350581 0.000000 0.000004
											CHANNELS 3 Zrotation Yrotation Xrotation
											JOINT LeftHandRing4
											{
												OFFSET 2.651325 0.000008 0.000004
												CHANNELS 3 Zrotation Yrotation Xrotation
												JOINT LeftHandRingEnd
												{
													OFFSET 1.936111 0.077685 -0.000070
													CHANNELS 3 Zrotation Yrotation Xrotation
													End Site
													{
														OFFSET 0.000000 0.000000 0.000000
													}
												}
											}
										}
									}
								}
								JOINT LeftHandPinky1
								{
									OFFSET 2.865500 -0.310004 -1.600378
									CHANNELS 3 Zrotation Yrotation Xrotation
									JOINT LeftHandPinky2
									{
										OFFSET 5.087853 -1.331141 -1.771231
										CHANNELS 3 Zrotation Yrotation Xrotation
										JOINT LeftHandPinky3
										{
											OFFSET 3.070975 0.000003 0.000001
											CHANNELS 3 Zrotation Yrotation Xrotation
											JOINT LeftHandPinky4
											{
												OFFSET 1.549668 0.000001 0.000001
												CHANNELS 3 Zrotation Yrotation Xrotation
												JOINT LeftHandPinkyEnd
												{
													OFFSET 1.944894 -0.157802 0.057219
													CHANNELS 3 Zrotation Yrotation Xrotation
													End Site
													{
														OFFSET 0.000000 0.000000 0.000000
													}
												}
											}
										}
									}
								}
							}
						}
					}
				}
				JOINT RightShoulder
				{
					OFFSET -1.380118 23.180307 5.214158
					CHANNELS 3 Zrotation Yrotation Xrotation
					JOINT RightArm
					{
						OFFSET -15.037197 0.000013 -5.545605
						CHANNELS 3 Zrotation Yrotation Xrotation
						JOINT RightForeArm
						{
							OFFSET -28.736639 0.000003 -0.002597
							CHANNELS 3 Zrotation Yrotation Xrotation
							JOINT RightHand
							{
								OFFSET -27.133619 -0.000000 0.002613
								CHANNELS 3 Zrotation Yrotation Xrotation
								JOINT RightHandThumb1
								{
									OFFSET -2.274037 -1.383990 3.163127
									CHANNELS 3 Zrotation Yrotation Xrotation
									JOINT RightHandThumb2
									{
										OFFSET -4.011429 -1.827467 1.640915
										CHANNELS 3 Zrotation Yrotation Xrotation
										JOINT RightHandThumb3
										{
											OFFSET -2.794934 -0.000004 -0.000003
											CHANNELS 3 Zrotation Yrotation Xrotation
											JOINT RightHandThumbEnd
											{
												OFFSET -3.183855 0.000003 -0.000001
												CHANNELS 3 Zrotation Yrotation Xrotation
												End Site
												{
													OFFSET 0.000000 0.000000 0.000000
												}
											}
										}
									}
								}
								JOINT RightHandIndex1
								{
									OFFSET -3.253270 -0.520060 2.282866
									CHANNELS 3 Zrotation Yrotation Xrotation
									JOINT RightHandIndex2
									{
										OFFSET -6.341918 0.012473 0.178265
										CHANNELS 3 Zrotation Yrotation Xrotation
										JOINT RightHandIndex3
										{
											OFFSET -3.654875 -0.000008 -0.000000
											CHANNELS 3 Zrotation Yrotation Xrotation
											JOINT RightHandIndex4
											{
												OFFSET -2.327586 -0.000000 0.000000
												CHANNELS 3 Zrotation Yrotation Xrotation
												JOINT RightHandIndexEnd
												{
													OFFSET -2.761789 -0.180657 -0.113079
													CHANNELS 3 Zrotation Yrotation Xrotation
													End Site
													{
														OFFSET 0.000000 0.000000 0.000000
													}
												}
											}
										}
									}
								}
								JOINT RightHandMiddle1
								{
									OFFSET -3.168107 0.246593 1.001031
									CHANNELS 3 Zrotation Yrotation Xrotation
									JOINT RightHandMiddle2
									{
										OFFSET -6.180830 -0.258836 -1.000896
										CHANNELS 3 Zrotation Yrotation Xrotation
										JOINT RightHandMiddle3
										{
											OFFSET -4.348906 -0.000000 -0.000001
											CHANNELS 3 Zrotation Yrotation Xrotation
											JOINT RightHandMiddle4
											{
												OFFSET -3.000243 -0.000003 -0.000003
												CHANNELS 3 Zrotation Yrotation Xrotation
												JOINT RightHandMiddleEnd
												{
													OFFSET -2.302518 -0.294372 -0.031706
													CHANNELS 3 Zrotation Yrotation Xrotation
													End Site
													{
														OFFSET 0.000000 0.000000 0.000000
													}
												}
											}
										}
									}
								}
								JOINT RightHandRing1
								{
									OFFSET -2.885693 -0.067952 -0.308858
									CHANNELS 3 Zrotation Yrotation Xrotation
									JOINT RightHandRing2
									{
										OFFSET -5.854197 -0.486132 -1.373732
										CHANNELS 3 Zrotation Yrotation Xrotation
										JOINT RightHandRing3
										{
											OFFSET -4.338814 -0.000004 -0.000001
											CHANNELS 3 Zrotation Yrotation Xrotation
											JOINT RightHandRing4
											{
												OFFSET -2.654906 -0.000004 0.000003
												CHANNELS 3 Zrotation Yrotation Xrotation
												JOINT RightHandRingEnd
												{
													OFFSET -1.933571 0.077525 -0.000052
													CHANNELS 3 Zrotation Yrotation Xrotation
													End Site
													{
														OFFSET 0.000000 0.000000 0.000000
													}
												}
											}
										}
									}
								}
								JOINT RightHandPinky1
								{
									OFFSET -2.866429 -0.342798 -1.584145
									CHANNELS 3 Zrotation Yrotation Xrotation
									JOINT RightHandPinky2
									{
										OFFSET -5.091370 -1.332054 -1.772385
										CHANNELS 3 Zrotation Yrotation Xrotation
										JOINT RightHandPinky3
										{
											OFFSET -3.062666 -0.000007 0.000000
											CHANNELS 3 Zrotation Yrotation Xrotation
											JOINT RightHandPinky4
											{
												OFFSET -1.546526 0.000006 -0.000003
												CHANNELS 3 Zrotation Yrotation Xrotation
												JOINT RightHandPinkyEnd
												{
													OFFSET -1.945122 -0.157721 0.057211
													CHANNELS 3 Zrotation Yrotation Xrotation
													End Site
													{
														OFFSET 0.000000 0.000000 0.000000
													}
												}
											}
										}
									}
								}
							}
						}
					}
				}
			}
		}
	}
	JOINT LeftLeg
	{
		OFFSET 10.043214 -8.434527 2.595655
		CHANNELS 3 Zrotation Yrotation Xrotation
		JOINT LeftShin
		{
			OFFSET -0.000001 -43.221752 -0.802913
			CHANNELS 3 Zrotation Yrotation Xrotation
			JOINT LeftFoot
			{
				OFFSET 0.000002 -42.155094 -3.481522
				CHANNELS 3 Zrotation Yrotation Xrotation
				JOINT LeftToeBase
				{
					OFFSET -0.000000 -5.059475 13.231529
					CHANNELS 3 Zrotation Yrotation Xrotation
					JOINT LeftToeEnd
					{
						OFFSET -0.009607 -1.647615 6.513017
						CHANNELS 3 Zrotation Yrotation Xrotation
						End Site
						{
							OFFSET 0.000000 0.000000 0.000000
						}
					}
				}
			}
		}
	}
	JOINT RightLeg
	{
		OFFSET -10.047277 -8.295259 2.620317
		CHANNELS 3 Zrotation Yrotation Xrotation
		JOINT RightShin
		{
			OFFSET 0.000000 -43.362209 -0.805556
			CHANNELS 3 Zrotation Yrotation Xrotation
			JOINT RightFoot
			{
				OFFSET 0.000002 -42.117393 -3.478398
				CHANNELS 3 Zrotation Yrotation Xrotation
				JOINT RightToeBase
				{
					OFFSET -0.000001 -5.079609 13.284196
					CHANNELS 3 Zrotation Yrotation Xrotation
					JOINT RightToeEnd
					{
						OFFSET 0.009532 -1.634383 6.460591
						CHANNELS 3 Zrotation Yrotation Xrotation
						End Site
						{
							OFFSET 0.000000 0.000000 0.000000
						}
					}
				}
			}
		}
	}
}
MOTION
Frames: 5
Frame Time: 0.033333
-2.708256 97.602333 4.427220 2.619669 0.140421 -1.602135 -3.158971 -0.061564 0.502647 -0.822789 -1.045066 -5.291902 -4.493519 -2.300188 15.762112 12.311310 -6.007461 19.160051 -2.066662 -6.707860 -3.278474 8.553468 -10.966763 7.986969 0.000078 -0.000024 0.000005 0.024885 -0.034299 -0.142755 0.841467 -3.796104 -10.644456 -0.798259 3.725635 -10.674607 7.135752 -17.467836 13.480805 -95.747108 -46.194622 20.498692 -179.239609 -45.000217 179.379028 7.417718 -10.876983 -7.172747 -5.882100 9.861278 0.702590 -10.936858 -0.360574 7.156199 -0.000000 8.774813 -0.000003 -15.996593 18.107952 5.872190 -1.844031 2.498503 -2.507277 -10.163589 4.678941 4.621104 -20.975992 -0.000003 0.000002 -21.226254 2.451692 -3.593995 0.000000 -0.000006 -0.000000 -1.362680 2.240796 -0.746324 -21.334890 0.584910 3.008321 -13.821193 -0.000003 0.000002 -23.887125 -0.249077 -0.839482 -60.470188 2.610785 -1.866189 -0.294025 1.679686 0.833255 -14.218190 0.093213 1.300581 -34.211998 -0.287564 0.967171 -20.033175 0.964537 1.212843 -0.000000 -0.000001 0.000000 -3.440385 0.788233 0.501656 -15.928167 -3.167306 2.999705 -6.338817 -0.000001 0.000001 -18.123415 3.648177 -4.905663 -0.000004 0.000000 -0.000001 -15.798576 21.743311 9.375064 88.898987 37.015045 -13.471813 -179.761734 34.495678 -179.623566 3.905596 17.588501 -8.114104 2.243539 -5.255033 -3.180154 14.282877 -0.826594 6.952495 -0.000001 -12.690590 0.000001 16.331440 -18.235189 2.836250 1.665663 -1.955920 -2.878296 4.727793 -4.170583 4.993918 11.020511 0.000003 -0.000001 12.109033 -3.735709 -2.866780 0.000000 0.000000 0.000001 1.291985 -1.928548 -1.498089 14.800111 0.567468 3.865604 14.242551 -1.341734 -6.660649 19.631937 0.143925 -0.648244 50.431087 -0.911776 -5.619897 0.353029 -1.511149 -0.031941 20.222769 3.684306 2.316628 18.787245 0.000003 0.000000 10.751610 -0.479868 1.397904 0.000000 -0.000000 0.000000 3.273806 0.305947 -0.580111 21.486792 11.830362 2.266129 8.162916 0.000003 -0.000002 18.399055 -3.798977 -4.940568 0.000003 -0.000001 -0.000000 2.981438 8.686593 -0.851229 -0.056447 -0.694024 19.235025 -5.011663 -3.762704 -14.978378 1.659587 -2.039110 -1.720072 0.000000 -0.000000 0.000002 -17.678488 -28.928831 -14.200229 0.132864 0.229193 14.176209 15.172455 4.571480 14.833104 -1.409232 0.739349 -1.144599 0.000000 0.000001 -0.000001 
-2.826077 97.604385 4.543154 2.644452 -0.067605 -1.623089 -3.183273 -0.085691 0.489108 -0.799094 -1.027314 -5.305775 -4.559135 -2.237145 15.724172 12.208386 -5.913910 19.257874 -2.075162 -6.797446 -3.281894 8.452426 -10.884483 8.058589 0.000077 -0.000023 0.000006 0.044816 -0.042617 -0.137010 0.851426 -3.802830 -10.689643 -0.783034 3.721890 -10.710603 6.996034 -17.381363 13.552611 -95.715355 -46.036659 20.516323 -179.269363 -44.865059 179.260880 7.582124 -10.897696 -7.435704 -5.882101 9.861278 0.702589 -10.936857 -0.360574 7.156195 -0.000000 8.774814 -0.000001 -16.016365 18.211143 5.881281 -1.844031 2.498502 -2.507275 -10.163589 4.678941 4.621103 -20.975992 -0.000002 0.000001 -21.226250 2.451694 -3.593995 0.000000 -0.000006 -0.000000 -1.362681 2.240796 -0.746322 -21.334887 0.584910 3.008320 -13.821197 -0.000002 0.000001 -23.887129 -0.249077 -0.839483 -60.642002 2.527136 -1.948944 -0.294024 1.679686 0.833254 -14.218190 0.093216 1.300579 -34.211998 -0.287563 0.967166 -20.033178 0.964537 1.212840 -0.000001 -0.000001 -0.000001 -3.440386 0.788233 0.501653 -15.928165 -3.167305 2.999703 -6.338818 -0.000001 0.000002 -18.123413 3.648176 -4.905663 -0.000004 0.000001 -0.000002 -16.016140 21.870636 9.391500 89.161354 37.128510 -13.407628 -179.905701 34.384716 -179.662338 3.675757 17.726049 -8.540422 2.243540 -5.255033 -3.180156 14.282877 -0.826593 6.952496 -0.000003 -12.690590 0.000000 16.241238 -18.201237 2.870440 1.665665 -1.955920 -2.878297 4.727794 -4.170583 4.993919 11.020509 0.000002 -0.000001 12.109033 -3.735710 -2.866780 0.000000 0.000000 0.000000 1.291985 -1.928548 -1.498089 14.800114 0.567467 3.865603 14.242553 -1.341735 -6.660649 19.631937 0.143926 -0.648243 50.286060 -0.916340 -5.577372 0.353030 -1.511149 -0.031940 20.222767 3.684305 2.316629 18.787243 0.000003 0.000000 10.751610 -0.479868 1.397904 0.000000 -0.000000 0.000000 3.273803 0.305947 -0.580110 21.486790 11.830361 2.266130 8.162916 0.000002 -0.000001 18.399050 -3.798979 -4.940568 0.000002 -0.000001 -0.000000 3.020261 8.671910 -0.675330 -0.051524 -0.713322 19.146933 -5.061067 -3.518659 -14.874829 1.654499 -2.072108 -1.677784 0.000000 -0.000000 0.000002 -17.617987 -28.879524 -14.452691 0.133075 0.195362 14.702295 15.312576 4.796098 14.643032 -1.409192 0.707069 -1.199802 0.000000 0.000000 -0.000001 
-2.875190 97.599205 4.638860 2.673137 -0.180923 -1.606067 -3.184906 -0.081593 0.465809 -0.784960 -1.027310 -5.335286 -4.612895 -2.173006 15.691031 12.134688 -5.858669 19.316113 -2.095732 -6.819897 -3.278764 8.385754 -10.908124 8.043791 0.000077 -0.000024 0.000006 0.042752 -0.041323 -0.139890 0.855980 -3.808981 -10.695125 -0.770490 3.724548 -10.737446 6.876680 -17.302460 13.528284 -95.659752 -45.844307 20.487610 -179.295670 -44.750996 179.154358 7.643286 -11.013072 -7.413523 -5.882101 9.861278 0.702589 -10.936859 -0.360575 7.156197 0.000000 8.774815 -0.000002 -15.998684 18.242826 5.904601 -1.844031 2.498502 -2.507276 -10.163590 4.678939 4.621107 -20.975996 -0.000006 0.000000 -21.226255 2.451691 -3.593996 0.000000 -0.000005 0.000000 -1.362681 2.240797 -0.746323 -21.334887 0.584908 3.008319 -13.821195 -0.000003 -0.000000 -23.887135 -0.249080 -0.839483 -60.712795 2.464725 -1.922788 -0.294024 1.679685 0.833254 -14.218194 0.093214 1.300578 -34.212002 -0.287565 0.967166 -20.033180 0.964534 1.212840 -0.000001 -0.000002 -0.000001 -3.440386 0.788232 0.501653 -15.928167 -3.167306 2.999702 -6.338817 -0.000001 -0.000001 -18.123415 3.648174 -4.905662 -0.000005 0.000002 -0.000001 -16.229218 21.960764 9.396533 89.343277 37.228310 -13.500723 179.920731 34.339855 -179.727142 3.414187 17.803047 -9.011719 2.243539 -5.255033 -3.180155 14.282873 -0.826593 6.952497 -0.000001 -12.690590 0.000001 16.133585 -18.137901 2.884932 1.665664 -1.955919 -2.878298 4.727794 -4.170582 4.993918 11.020510 0.000003 -0.000001 12.109031 -3.735709 -2.866780 0.000000 -0.000000 -0.000001 1.291983 -1.928547 -1.498088 14.800111 0.567467 3.865605 14.242553 -1.341735 -6.660648 19.631935 0.143926 -0.648242 50.154728 -0.918675 -5.588248 0.353029 -1.511149 -0.031941 20.222765 3.684305 2.316628 18.787243 0.000003 0.000001 10.751610 -0.479868 1.397904 0.000000 0.000000 0.000000 3.273804 0.305947 -0.580109 21.486788 11.830360 2.266131 8.162917 0.000002 -0.000000 18.399050 -3.798980 -4.940566 0.000002 0.000000 -0.000000 3.019246 8.689692 -0.581701 -0.044148 -0.706642 19.087120 -5.092624 -3.368191 -14.866409 1.650162 -2.090057 -1.597560 0.000000 -0.000000 0.000002 -17.613668 -28.895422 -14.561327 0.152478 0.181195 14.920139 15.422541 4.999396 14.503939 -1.411264 0.725658 -1.213350 0.000000 0.000001 -0.000001 
-2.932277 97.595390 4.710480 2.704335 -0.231740 -1.547397 -3.182760 -0.084933 0.416772 -0.774894 -0.990673 -5.341623 -4.654753 -2.169854 15.625621 12.075507 -5.849840 19.365816 -2.129097 -6.836395 -3.265177 8.350371 -10.961085 8.038786 0.000078 -0.000024 0.000006 0.048903 -0.047480 -0.139354 0.857362 -3.825613 -10.701406 -0.758691 3.724125 -10.746133 6.806144 -17.221823 13.473617 -95.496185 -45.639412 20.305138 -179.264572 -44.626122 179.104095 7.657031 -11.142797 -7.282671 -5.882099 9.861278 0.702590 -10.936859 -0.360577 7.156196 0.000001 8.774814 -0.000003 -15.927316 18.228930 5.958637 -1.844031 2.498503 -2.507277 -10.163589 4.678938 4.621104 -20.975994 -0.000005 0.000004 -21.226248 2.451692 -3.593995 -0.000000 -0.000006 -0.000001 -1.362681 2.240796 -0.746321 -21.334892 0.584907 3.008320 -13.821195 -0.000003 0.000001 -23.887125 -0.249079 -0.839480 -60.665928 2.448435 -1.854318 -0.294025 1.679686 0.833253 -14.218192 0.093214 1.300580 -34.212002 -0.287564 0.967171 -20.033178 0.964537 1.212842 -0.000000 -0.000002 -0.000001 -3.440385 0.788232 0.501653 -15.928167 -3.167308 2.999703 -6.338816 -0.000002 0.000000 -18.123411 3.648177 -4.905661 -0.000004 0.000001 -0.000001 -16.446009 22.004345 9.331020 89.544556 37.258709 -13.571312 179.747406 34.332649 -179.785263 3.178207 17.815252 -9.596721 2.243540 -5.255033 -3.180154 14.282877 -0.826594 6.952496 -0.000002 -12.690591 0.000001 16.019272 -18.139048 2.907913 1.665664 -1.955920 -2.878296 4.727793 -4.170584 4.993919 11.020513 0.000003 -0.000001 12.109032 -3.735709 -2.866781 0.000000 0.000000 -0.000001 1.291984 -1.928548 -1.498087 14.800111 0.567468 3.865604 14.242553 -1.341734 -6.660650 19.631939 0.143927 -0.648243 50.128750 -0.933065 -5.608709 0.353029 -1.511149 -0.031939 20.222769 3.684308 2.316628 18.787245 0.000004 -0.000000 10.751610 -0.479868 1.397904 -0.000001 0.000000 0.000000 3.273804 0.305947 -0.580111 21.486790 11.830364 2.266130 8.162916 0.000002 -0.000001 18.399050 -3.798980 -4.940568 0.000002 -0.000001 -0.000001 3.018818 8.721623 -0.536401 -0.030238 -0.693501 18.977037 -5.145952 -3.338953 -14.856701 1.645975 -2.090591 -1.564639 0.000000 -0.000000 0.000002 -17.583296 -28.989906 -14.662160 0.167985 0.189246 15.039103 15.523063 5.162012 14.359676 -1.412329 0.721807 -1.208256 0.000000 0.000001 -0.000001 
-2.997078 97.592911 4.738276 2.725504 -0.258996 -1.465424 -3.163010 -0.071679 0.359213 -0.772764 -0.973112 -5.346929 -4.671894 -2.177655 15.557186 12.010399 -5.838166 19.391760 -2.160634 -6.819149 -3.272889 8.314805 -11.043012 8.094198 0.000078 -0.000024 0.000005 0.057023 -0.054043 -0.135460 0.844170 -3.816780 -10.689226 -0.747257 3.718456 -10.740170 6.784164 -17.133837 13.404961 -95.354637 -45.515148 20.098558 -179.136063 -44.529594 179.094894 7.723867 -11.254817 -7.016547 -5.882102 9.861277 0.702588 -10.936860 -0.360575 7.156196 0.000001 8.774811 0.000000 -15.886184 18.216661 5.977074 -1.844031 2.498502 -2.507274 -10.163592 4.678941 4.621104 -20.976000 -0.000002 0.000001 -21.226255 2.451691 -3.593994 0.000001 -0.000006 0.000001 -1.362680 2.240796 -0.746322 -21.334890 0.584910 3.008318 -13.821198 -0.000002 0.000000 -23.887135 -0.249079 -0.839483 -60.573967 2.455835 -1.818093 -0.294025 1.679686 0.833256 -14.218194 0.093214 1.300577 -34.212006 -0.287564 0.967171 -20.033180 0.964534 1.212841 -0.000001 -0.000001 0.000001 -3.440385 0.788233 0.501656 -15.928171 -3.167305 2.999705 -6.338818 -0.000001 -0.000001 -18.123415 3.648174 -4.905662 -0.000004 0.000001 -0.000002 -16.644852 22.076794 9.230835 89.670029 37.231236 -13.590519 179.717957 34.326553 -179.769226 3.004631 17.745470 -10.048568 2.243540 -5.255033 -3.180155 14.282877 -0.826593 6.952495 -0.000003 -12.690592 -0.000000 15.979476 -18.144035 2.920635 1.665665 -1.955920 -2.878296 4.727792 -4.170582 4.993918 11.020512 0.000003 -0.000001 12.109032 -3.735709 -2.866780 0.000000 0.000000 0.000000 1.291985 -1.928548 -1.498088 14.800111 0.567468 3.865603 14.242550 -1.341734 -6.660649 19.631937 0.143927 -0.648243 50.113586 -0.940510 -5.650527 0.353027 -1.511149 -0.031941 20.222773 3.684306 2.316627 18.787245 0.000005 -0.000000 10.751613 -0.479867 1.397904 -0.000000 0.000000 0.000000 3.273805 0.305947 -0.580109 21.486792 11.830363 2.266132 8.162916 0.000003 -0.000001 18.399050 -3.798977 -4.940567 0.000002 0.000000 -0.000001 3.041910 8.818128 -0.554852 -0.026892 -0.703162 18.878571 -5.212540 -3.358611 -14.846073 1.643612 -2.088874 -1.599932 0.000000 0.000000 0.000002 -17.513445 -29.071760 -14.747184 0.171666 0.171508 15.028169 15.657614 5.247042 14.241241 -1.413967 0.735744 -1.202531 -0.000000 0.000001 -0.000001 
